<svg width="1635" height="109" viewBox="0 0 1635 109" xmlns="http://www.w3.org/2000/svg" xmlns:xlink="http://www.w3.org/1999/xlink" xml:space="preserve" version="1.1"  baseProfile="full">
<line x1="1" y1="1" x2="1634" y2="1" style="stroke:#ddd;stroke-width:2" />
<line x1="1" y1="1" x2="1" y2="108" style="stroke:#ddd;stroke-width:2" />
<line x1="1" y1="108" x2="1634" y2="108" style="stroke:#ddd;stroke-width:2" />
<line x1="1634" y1="1" x2="1634" y2="108" style="stroke:#ddd;stroke-width:2" />
<line x1="109" y1="1" x2="109" y2="108" style="stroke:#ddd;stroke-width:2" />
<line x1="218" y1="1" x2="218" y2="108" style="stroke:#ddd;stroke-width:2" />
<line x1="327" y1="1" x2="327" y2="108" style="stroke:#ddd;stroke-width:2" />
<line x1="436" y1="1" x2="436" y2="108" style="stroke:#ddd;stroke-width:2" />
<line x1="545" y1="1" x2="545" y2="108" style="stroke:#ddd;stroke-width:2" />
<line x1="654" y1="1" x2="654" y2="108" style="stroke:#ddd;stroke-width:2" />
<line x1="763" y1="1" x2="763" y2="108" style="stroke:#ddd;stroke-width:2" />
<line x1="872" y1="1" x2="872" y2="108" style="stroke:#ddd;stroke-width:2" />
<line x1="981" y1="1" x2="981" y2="108" style="stroke:#ddd;stroke-width:2" />
<line x1="1090" y1="1" x2="1090" y2="108" style="stroke:#ddd;stroke-width:2" />
<line x1="1199" y1="1" x2="1199" y2="108" style="stroke:#ddd;stroke-width:2" />
<line x1="1308" y1="1" x2="1308" y2="108" style="stroke:#ddd;stroke-width:2" />
<line x1="1417" y1="1" x2="1417" y2="108" style="stroke:#ddd;stroke-width:2" />
<line x1="1526" y1="1" x2="1526" y2="108" style="stroke:#ddd;stroke-width:2" />
<line x1="1" y1="54" x2="1634" y2="54" style="stroke:#ddd;stroke-width:2;stroke-dasharray:3 3" />
<line x1="55" y1="1" x2="55" y2="108" style="stroke:#ddd;stroke-width:2;stroke-dasharray:3 3" />
<line x1="164" y1="1" x2="164" y2="108" style="stroke:#ddd;stroke-width:2;stroke-dasharray:3 3" />
<line x1="273" y1="1" x2="273" y2="108" style="stroke:#ddd;stroke-width:2;stroke-dasharray:3 3" />
<line x1="382" y1="1" x2="382" y2="108" style="stroke:#ddd;stroke-width:2;stroke-dasharray:3 3" />
<line x1="491" y1="1" x2="491" y2="108" style="stroke:#ddd;stroke-width:2;stroke-dasharray:3 3" />
<line x1="600" y1="1" x2="600" y2="108" style="stroke:#ddd;stroke-width:2;stroke-dasharray:3 3" />
<line x1="709" y1="1" x2="709" y2="108" style="stroke:#ddd;stroke-width:2;stroke-dasharray:3 3" />
<line x1="818" y1="1" x2="818" y2="108" style="stroke:#ddd;stroke-width:2;stroke-dasharray:3 3" />
<line x1="927" y1="1" x2="927" y2="108" style="stroke:#ddd;stroke-width:2;stroke-dasharray:3 3" />
<line x1="1036" y1="1" x2="1036" y2="108" style="stroke:#ddd;stroke-width:2;stroke-dasharray:3 3" />
<line x1="1145" y1="1" x2="1145" y2="108" style="stroke:#ddd;stroke-width:2;stroke-dasharray:3 3" />
<line x1="1254" y1="1" x2="1254" y2="108" style="stroke:#ddd;stroke-width:2;stroke-dasharray:3 3" />
<line x1="1363" y1="1" x2="1363" y2="108" style="stroke:#ddd;stroke-width:2;stroke-dasharray:3 3" />
<line x1="1472" y1="1" x2="1472" y2="108" style="stroke:#ddd;stroke-width:2;stroke-dasharray:3 3" />
<line x1="1581" y1="1" x2="1581" y2="108" style="stroke:#ddd;stroke-width:2;stroke-dasharray:3 3" />
<path d="M19.64,20.04c1.12,0.47,3.16,0.42,4.36,0.34c7.45-0.55,14.57-1.8,21.38-2.42c1.23-0.11,2.29-0.2,3.48,0.1" style="fill:none;stroke:black;stroke-width:3" />
<circle cx="19.64" cy="20.04" r="5" stroke-width="0" fill="#FF2A00" opacity="0.7" />
<path d="M128.64,20.04c1.12,0.47,3.16,0.42,4.36,0.34c7.45-0.55,14.57-1.8,21.38-2.42c1.23-0.11,2.29-0.2,3.48,0.1" style="fill:none;stroke:#999;stroke-width:3" />
<path d="M128.32,28.26c0.77,0.77,1.2,2.31,1.35,3.13c0.47,2.6,1.36,6.61,1.88,10.82c0.16,1.27,0.32,2.51,0.49,3.63" style="fill:none;stroke:black;stroke-width:3" />
<circle cx="128.32" cy="28.26" r="5" stroke-width="0" fill="#FF2A00" opacity="0.7" />
<path d="M237.64,20.04c1.12,0.47,3.16,0.42,4.36,0.34c7.45-0.55,14.57-1.8,21.38-2.42c1.23-0.11,2.29-0.2,3.48,0.1" style="fill:none;stroke:#999;stroke-width:3" />
<path d="M237.32,28.26c0.77,0.77,1.2,2.31,1.35,3.13c0.47,2.6,1.36,6.61,1.88,10.82c0.16,1.27,0.32,2.51,0.49,3.63" style="fill:none;stroke:#999;stroke-width:3" />
<path d="M239.25,29.13c5.9-0.53,18.09-2.57,24-3.09c2.7-0.24,4.7,0.62,4.18,3.76c-0.46,2.81-1.61,6.42-2.63,10.14c-0.29,1.06-0.59,2.12-0.88,3.13" style="fill:none;stroke:black;stroke-width:3" />
<circle cx="239.25" cy="29.13" r="5" stroke-width="0" fill="#FF2A00" opacity="0.7" />
<path d="M346.64,20.04c1.12,0.47,3.16,0.42,4.36,0.34c7.45-0.55,14.57-1.8,21.38-2.42c1.23-0.11,2.29-0.2,3.48,0.1" style="fill:none;stroke:#999;stroke-width:3" />
<path d="M346.32,28.26c0.77,0.77,1.2,2.31,1.35,3.13c0.47,2.6,1.36,6.61,1.88,10.82c0.16,1.27,0.32,2.51,0.49,3.63" style="fill:none;stroke:#999;stroke-width:3" />
<path d="M348.25,29.13c5.9-0.53,18.09-2.57,24-3.09c2.7-0.24,4.7,0.62,4.18,3.76c-0.46,2.81-1.61,6.42-2.63,10.14c-0.29,1.06-0.59,2.12-0.88,3.13" style="fill:none;stroke:#999;stroke-width:3" />
<path d="M349.82,36.53c6.68-0.91,17.18-2.41,24.45-2.81" style="fill:none;stroke:black;stroke-width:3" />
<circle cx="349.82" cy="36.53" r="5" stroke-width="0" fill="#FF2A00" opacity="0.7" />
<path d="M455.64,20.04c1.12,0.47,3.16,0.42,4.36,0.34c7.45-0.55,14.57-1.8,21.38-2.42c1.23-0.11,2.29-0.2,3.48,0.1" style="fill:none;stroke:#999;stroke-width:3" />
<path d="M455.32,28.26c0.77,0.77,1.2,2.31,1.35,3.13c0.47,2.6,1.36,6.61,1.88,10.82c0.16,1.27,0.32,2.51,0.49,3.63" style="fill:none;stroke:#999;stroke-width:3" />
<path d="M457.25,29.13c5.9-0.53,18.09-2.57,24-3.09c2.7-0.24,4.7,0.62,4.18,3.76c-0.46,2.81-1.61,6.42-2.63,10.14c-0.29,1.06-0.59,2.12-0.88,3.13" style="fill:none;stroke:#999;stroke-width:3" />
<path d="M458.82,36.53c6.68-0.91,17.18-2.41,24.45-2.81" style="fill:none;stroke:#999;stroke-width:3" />
<path d="M459.82,43.92c5.83-0.62,13.8-1.8,21.35-2.21" style="fill:none;stroke:black;stroke-width:3" />
<circle cx="459.82" cy="43.92" r="5" stroke-width="0" fill="#FF2A00" opacity="0.7" />
<path d="M564.64,20.04c1.12,0.47,3.16,0.42,4.36,0.34c7.45-0.55,14.57-1.8,21.38-2.42c1.23-0.11,2.29-0.2,3.48,0.1" style="fill:none;stroke:#999;stroke-width:3" />
<path d="M564.3199999999999,28.26c0.77,0.77,1.2,2.31,1.35,3.13c0.47,2.6,1.36,6.61,1.88,10.82c0.16,1.27,0.32,2.51,0.49,3.63" style="fill:none;stroke:#999;stroke-width:3" />
<path d="M566.25,29.13c5.9-0.53,18.09-2.57,24-3.09c2.7-0.24,4.7,0.62,4.18,3.76c-0.46,2.81-1.61,6.42-2.63,10.14c-0.29,1.06-0.59,2.12-0.88,3.13" style="fill:none;stroke:#999;stroke-width:3" />
<path d="M567.8199999999999,36.53c6.68-0.91,17.18-2.41,24.45-2.81" style="fill:none;stroke:#999;stroke-width:3" />
<path d="M568.8199999999999,43.92c5.83-0.62,13.8-1.8,21.35-2.21" style="fill:none;stroke:#999;stroke-width:3" />
<path d="M559.33,52.53c1.5,0.89,4.3,0.6,5.93,0.42c7.64-0.82,20.35-2.5,27.24-3.33c1.45-0.17,3-0.49,4.42,0.02" style="fill:none;stroke:black;stroke-width:3" />
<circle cx="559.33" cy="52.53" r="5" stroke-width="0" fill="#FF2A00" opacity="0.7" />
<path d="M673.64,20.04c1.12,0.47,3.16,0.42,4.36,0.34c7.45-0.55,14.57-1.8,21.38-2.42c1.23-0.11,2.29-0.2,3.48,0.1" style="fill:none;stroke:#999;stroke-width:3" />
<path d="M673.3199999999999,28.26c0.77,0.77,1.2,2.31,1.35,3.13c0.47,2.6,1.36,6.61,1.88,10.82c0.16,1.27,0.32,2.51,0.49,3.63" style="fill:none;stroke:#999;stroke-width:3" />
<path d="M675.25,29.13c5.9-0.53,18.09-2.57,24-3.09c2.7-0.24,4.7,0.62,4.18,3.76c-0.46,2.81-1.61,6.42-2.63,10.14c-0.29,1.06-0.59,2.12-0.88,3.13" style="fill:none;stroke:#999;stroke-width:3" />
<path d="M676.8199999999999,36.53c6.68-0.91,17.18-2.41,24.45-2.81" style="fill:none;stroke:#999;stroke-width:3" />
<path d="M677.8199999999999,43.92c5.83-0.62,13.8-1.8,21.35-2.21" style="fill:none;stroke:#999;stroke-width:3" />
<path d="M668.33,52.53c1.5,0.89,4.3,0.6,5.93,0.42c7.64-0.82,20.35-2.5,27.24-3.33c1.45-0.17,3-0.49,4.42,0.02" style="fill:none;stroke:#999;stroke-width:3" />
<path d="M687.64,11.38c0.8,0.8,1.11,1.87,1.11,2.99c0,0.49,0.08,28.17,0.11,39.26c0.01,2.65,0.01,4.35,0.01,4.51" style="fill:none;stroke:black;stroke-width:3" />
<circle cx="687.64" cy="11.38" r="5" stroke-width="0" fill="#FF2A00" opacity="0.7" />
<path d="M782.64,20.04c1.12,0.47,3.16,0.42,4.36,0.34c7.45-0.55,14.57-1.8,21.38-2.42c1.23-0.11,2.29-0.2,3.48,0.1" style="fill:none;stroke:#999;stroke-width:3" />
<path d="M782.3199999999999,28.26c0.77,0.77,1.2,2.31,1.35,3.13c0.47,2.6,1.36,6.61,1.88,10.82c0.16,1.27,0.32,2.51,0.49,3.63" style="fill:none;stroke:#999;stroke-width:3" />
<path d="M784.25,29.13c5.9-0.53,18.09-2.57,24-3.09c2.7-0.24,4.7,0.62,4.18,3.76c-0.46,2.81-1.61,6.42-2.63,10.14c-0.29,1.06-0.59,2.12-0.88,3.13" style="fill:none;stroke:#999;stroke-width:3" />
<path d="M785.8199999999999,36.53c6.68-0.91,17.18-2.41,24.45-2.81" style="fill:none;stroke:#999;stroke-width:3" />
<path d="M786.8199999999999,43.92c5.83-0.62,13.8-1.8,21.35-2.21" style="fill:none;stroke:#999;stroke-width:3" />
<path d="M777.33,52.53c1.5,0.89,4.3,0.6,5.93,0.42c7.64-0.82,20.35-2.5,27.24-3.33c1.45-0.17,3-0.49,4.42,0.02" style="fill:none;stroke:#999;stroke-width:3" />
<path d="M796.64,11.38c0.8,0.8,1.11,1.87,1.11,2.99c0,0.49,0.08,28.17,0.11,39.26c0.01,2.65,0.01,4.35,0.01,4.51" style="fill:none;stroke:#999;stroke-width:3" />
<path d="M823.62,14.06c0.47,0.47,0.77,1.37,0.72,1.99c-0.46,5.95-1.96,11.45-6.57,15.9" style="fill:none;stroke:black;stroke-width:3" />
<circle cx="823.62" cy="14.06" r="5" stroke-width="0" fill="#FF2A00" opacity="0.7" />
<path d="M891.64,20.04c1.12,0.47,3.16,0.42,4.36,0.34c7.45-0.55,14.57-1.8,21.38-2.42c1.23-0.11,2.29-0.2,3.48,0.1" style="fill:none;stroke:#999;stroke-width:3" />
<path d="M891.3199999999999,28.26c0.77,0.77,1.2,2.31,1.35,3.13c0.47,2.6,1.36,6.61,1.88,10.82c0.16,1.27,0.32,2.51,0.49,3.63" style="fill:none;stroke:#999;stroke-width:3" />
<path d="M893.25,29.13c5.9-0.53,18.09-2.57,24-3.09c2.7-0.24,4.7,0.62,4.18,3.76c-0.46,2.81-1.61,6.42-2.63,10.14c-0.29,1.06-0.59,2.12-0.88,3.13" style="fill:none;stroke:#999;stroke-width:3" />
<path d="M894.8199999999999,36.53c6.68-0.91,17.18-2.41,24.45-2.81" style="fill:none;stroke:#999;stroke-width:3" />
<path d="M895.8199999999999,43.92c5.83-0.62,13.8-1.8,21.35-2.21" style="fill:none;stroke:#999;stroke-width:3" />
<path d="M886.33,52.53c1.5,0.89,4.3,0.6,5.93,0.42c7.64-0.82,20.35-2.5,27.24-3.33c1.45-0.17,3-0.49,4.42,0.02" style="fill:none;stroke:#999;stroke-width:3" />
<path d="M905.64,11.38c0.8,0.8,1.11,1.87,1.11,2.99c0,0.49,0.08,28.17,0.11,39.26c0.01,2.65,0.01,4.35,0.01,4.51" style="fill:none;stroke:#999;stroke-width:3" />
<path d="M932.62,14.06c0.47,0.47,0.77,1.37,0.72,1.99c-0.46,5.95-1.96,11.45-6.57,15.9" style="fill:none;stroke:#999;stroke-width:3" />
<path d="M934.08,15.5c3.79-0.5,8.17-1.25,11.46-1.68c1.82-0.24,2.66,1.07,2.48,2.18c-0.35,2.18-1.03,5.38-1.03,7.56c0,4.31,0.39,4.71,6.97,4.71c6.9,0,7.22-1.28,7.22-6.05" style="fill:none;stroke:black;stroke-width:3" />
<circle cx="934.08" cy="15.5" r="5" stroke-width="0" fill="#FF2A00" opacity="0.7" />
<path d="M1000.64,20.04c1.12,0.47,3.16,0.42,4.36,0.34c7.45-0.55,14.57-1.8,21.38-2.42c1.23-0.11,2.29-0.2,3.48,0.1" style="fill:none;stroke:#999;stroke-width:3" />
<path d="M1000.3199999999999,28.26c0.77,0.77,1.2,2.31,1.35,3.13c0.47,2.6,1.36,6.61,1.88,10.82c0.16,1.27,0.32,2.51,0.49,3.63" style="fill:none;stroke:#999;stroke-width:3" />
<path d="M1002.25,29.13c5.9-0.53,18.09-2.57,24-3.09c2.7-0.24,4.7,0.62,4.18,3.76c-0.46,2.81-1.61,6.42-2.63,10.14c-0.29,1.06-0.59,2.12-0.88,3.13" style="fill:none;stroke:#999;stroke-width:3" />
<path d="M1003.8199999999999,36.53c6.68-0.91,17.18-2.41,24.45-2.81" style="fill:none;stroke:#999;stroke-width:3" />
<path d="M1004.8199999999999,43.92c5.83-0.62,13.8-1.8,21.35-2.21" style="fill:none;stroke:#999;stroke-width:3" />
<path d="M995.33,52.53c1.5,0.89,4.3,0.6,5.93,0.42c7.64-0.82,20.35-2.5,27.24-3.33c1.45-0.17,3-0.49,4.42,0.02" style="fill:none;stroke:#999;stroke-width:3" />
<path d="M1014.64,11.38c0.8,0.8,1.11,1.87,1.11,2.99c0,0.49,0.08,28.17,0.11,39.26c0.01,2.65,0.01,4.35,0.01,4.51" style="fill:none;stroke:#999;stroke-width:3" />
<path d="M1041.62,14.06c0.47,0.47,0.77,1.37,0.72,1.99c-0.46,5.95-1.96,11.45-6.57,15.9" style="fill:none;stroke:#999;stroke-width:3" />
<path d="M1043.08,15.5c3.79-0.5,8.17-1.25,11.46-1.68c1.82-0.24,2.66,1.07,2.48,2.18c-0.35,2.18-1.03,5.38-1.03,7.56c0,4.31,0.39,4.71,6.97,4.71c6.9,0,7.22-1.28,7.22-6.05" style="fill:none;stroke:#999;stroke-width:3" />
<path d="M1039.92,35.44c1.02,0.19,1.15,0.47,3.2,0.19s12.65-1.82,14.06-2.08c2.32-0.42,3.41,1.36,2.17,2.83c-7.47,8.88-16.33,14.84-28.6,19.54" style="fill:none;stroke:black;stroke-width:3" />
<circle cx="1039.92" cy="35.44" r="5" stroke-width="0" fill="#FF2A00" opacity="0.7" />
<path d="M1109.6399999999999,20.04c1.12,0.47,3.16,0.42,4.36,0.34c7.45-0.55,14.57-1.8,21.38-2.42c1.23-0.11,2.29-0.2,3.48,0.1" style="fill:none;stroke:#999;stroke-width:3" />
<path d="M1109.32,28.26c0.77,0.77,1.2,2.31,1.35,3.13c0.47,2.6,1.36,6.61,1.88,10.82c0.16,1.27,0.32,2.51,0.49,3.63" style="fill:none;stroke:#999;stroke-width:3" />
<path d="M1111.25,29.13c5.9-0.53,18.09-2.57,24-3.09c2.7-0.24,4.7,0.62,4.18,3.76c-0.46,2.81-1.61,6.42-2.63,10.14c-0.29,1.06-0.59,2.12-0.88,3.13" style="fill:none;stroke:#999;stroke-width:3" />
<path d="M1112.82,36.53c6.68-0.91,17.18-2.41,24.45-2.81" style="fill:none;stroke:#999;stroke-width:3" />
<path d="M1113.82,43.92c5.83-0.62,13.8-1.8,21.35-2.21" style="fill:none;stroke:#999;stroke-width:3" />
<path d="M1104.33,52.53c1.5,0.89,4.3,0.6,5.93,0.42c7.64-0.82,20.35-2.5,27.24-3.33c1.45-0.17,3-0.49,4.42,0.02" style="fill:none;stroke:#999;stroke-width:3" />
<path d="M1123.6399999999999,11.38c0.8,0.8,1.11,1.87,1.11,2.99c0,0.49,0.08,28.17,0.11,39.26c0.01,2.65,0.01,4.35,0.01,4.51" style="fill:none;stroke:#999;stroke-width:3" />
<path d="M1150.62,14.06c0.47,0.47,0.77,1.37,0.72,1.99c-0.46,5.95-1.96,11.45-6.57,15.9" style="fill:none;stroke:#999;stroke-width:3" />
<path d="M1152.08,15.5c3.79-0.5,8.17-1.25,11.46-1.68c1.82-0.24,2.66,1.07,2.48,2.18c-0.35,2.18-1.03,5.38-1.03,7.56c0,4.31,0.39,4.71,6.97,4.71c6.9,0,7.22-1.28,7.22-6.05" style="fill:none;stroke:#999;stroke-width:3" />
<path d="M1148.92,35.44c1.02,0.19,1.15,0.47,3.2,0.19s12.65-1.82,14.06-2.08c2.32-0.42,3.41,1.36,2.17,2.83c-7.47,8.88-16.33,14.84-28.6,19.54" style="fill:none;stroke:#999;stroke-width:3" />
<path d="M1146.17,41.11c4.5,0,15.63,8.27,26.25,12.95c2.29,1.01,4.65,1.99,7.08,2.61" style="fill:none;stroke:black;stroke-width:3" />
<circle cx="1146.17" cy="41.11" r="5" stroke-width="0" fill="#FF2A00" opacity="0.7" />
<path d="M1218.6399999999999,20.04c1.12,0.47,3.16,0.42,4.36,0.34c7.45-0.55,14.57-1.8,21.38-2.42c1.23-0.11,2.29-0.2,3.48,0.1" style="fill:none;stroke:#999;stroke-width:3" />
<path d="M1218.32,28.26c0.77,0.77,1.2,2.31,1.35,3.13c0.47,2.6,1.36,6.61,1.88,10.82c0.16,1.27,0.32,2.51,0.49,3.63" style="fill:none;stroke:#999;stroke-width:3" />
<path d="M1220.25,29.13c5.9-0.53,18.09-2.57,24-3.09c2.7-0.24,4.7,0.62,4.18,3.76c-0.46,2.81-1.61,6.42-2.63,10.14c-0.29,1.06-0.59,2.12-0.88,3.13" style="fill:none;stroke:#999;stroke-width:3" />
<path d="M1221.82,36.53c6.68-0.91,17.18-2.41,24.45-2.81" style="fill:none;stroke:#999;stroke-width:3" />
<path d="M1222.82,43.92c5.83-0.62,13.8-1.8,21.35-2.21" style="fill:none;stroke:#999;stroke-width:3" />
<path d="M1213.33,52.53c1.5,0.89,4.3,0.6,5.93,0.42c7.64-0.82,20.35-2.5,27.24-3.33c1.45-0.17,3-0.49,4.42,0.02" style="fill:none;stroke:#999;stroke-width:3" />
<path d="M1232.6399999999999,11.38c0.8,0.8,1.11,1.87,1.11,2.99c0,0.49,0.08,28.17,0.11,39.26c0.01,2.65,0.01,4.35,0.01,4.51" style="fill:none;stroke:#999;stroke-width:3" />
<path d="M1259.62,14.06c0.47,0.47,0.77,1.37,0.72,1.99c-0.46,5.95-1.96,11.45-6.57,15.9" style="fill:none;stroke:#999;stroke-width:3" />
<path d="M1261.08,15.5c3.79-0.5,8.17-1.25,11.46-1.68c1.82-0.24,2.66,1.07,2.48,2.18c-0.35,2.18-1.03,5.38-1.03,7.56c0,4.31,0.39,4.71,6.97,4.71c6.9,0,7.22-1.28,7.22-6.05" style="fill:none;stroke:#999;stroke-width:3" />
<path d="M1257.92,35.44c1.02,0.19,1.15,0.47,3.2,0.19s12.65-1.82,14.06-2.08c2.32-0.42,3.41,1.36,2.17,2.83c-7.47,8.88-16.33,14.84-28.6,19.54" style="fill:none;stroke:#999;stroke-width:3" />
<path d="M1255.17,41.11c4.5,0,15.63,8.27,26.25,12.95c2.29,1.01,4.65,1.99,7.08,2.61" style="fill:none;stroke:#999;stroke-width:3" />
<path d="M1265.51,54.75c-0.01,1-0.89,1.73-2.17,2.25c-4.34,1.75-12.59,4.5-28.19,7.81" style="fill:none;stroke:black;stroke-width:3" />
<circle cx="1265.51" cy="54.75" r="5" stroke-width="0" fill="#FF2A00" opacity="0.7" />
<path d="M1327.6399999999999,20.04c1.12,0.47,3.16,0.42,4.36,0.34c7.45-0.55,14.57-1.8,21.38-2.42c1.23-0.11,2.29-0.2,3.48,0.1" style="fill:none;stroke:#999;stroke-width:3" />
<path d="M1327.32,28.26c0.77,0.77,1.2,2.31,1.35,3.13c0.47,2.6,1.36,6.61,1.88,10.82c0.16,1.27,0.32,2.51,0.49,3.63" style="fill:none;stroke:#999;stroke-width:3" />
<path d="M1329.25,29.13c5.9-0.53,18.09-2.57,24-3.09c2.7-0.24,4.7,0.62,4.18,3.76c-0.46,2.81-1.61,6.42-2.63,10.14c-0.29,1.06-0.59,2.12-0.88,3.13" style="fill:none;stroke:#999;stroke-width:3" />
<path d="M1330.82,36.53c6.68-0.91,17.18-2.41,24.45-2.81" style="fill:none;stroke:#999;stroke-width:3" />
<path d="M1331.82,43.92c5.83-0.62,13.8-1.8,21.35-2.21" style="fill:none;stroke:#999;stroke-width:3" />
<path d="M1322.33,52.53c1.5,0.89,4.3,0.6,5.93,0.42c7.64-0.82,20.35-2.5,27.24-3.33c1.45-0.17,3-0.49,4.42,0.02" style="fill:none;stroke:#999;stroke-width:3" />
<path d="M1341.6399999999999,11.38c0.8,0.8,1.11,1.87,1.11,2.99c0,0.49,0.08,28.17,0.11,39.26c0.01,2.65,0.01,4.35,0.01,4.51" style="fill:none;stroke:#999;stroke-width:3" />
<path d="M1368.62,14.06c0.47,0.47,0.77,1.37,0.72,1.99c-0.46,5.95-1.96,11.45-6.57,15.9" style="fill:none;stroke:#999;stroke-width:3" />
<path d="M1370.08,15.5c3.79-0.5,8.17-1.25,11.46-1.68c1.82-0.24,2.66,1.07,2.48,2.18c-0.35,2.18-1.03,5.38-1.03,7.56c0,4.31,0.39,4.71,6.97,4.71c6.9,0,7.22-1.28,7.22-6.05" style="fill:none;stroke:#999;stroke-width:3" />
<path d="M1366.92,35.44c1.02,0.19,1.15,0.47,3.2,0.19s12.65-1.82,14.06-2.08c2.32-0.42,3.41,1.36,2.17,2.83c-7.47,8.88-16.33,14.84-28.6,19.54" style="fill:none;stroke:#999;stroke-width:3" />
<path d="M1364.17,41.11c4.5,0,15.63,8.27,26.25,12.95c2.29,1.01,4.65,1.99,7.08,2.61" style="fill:none;stroke:#999;stroke-width:3" />
<path d="M1374.51,54.75c-0.01,1-0.89,1.73-2.17,2.25c-4.34,1.75-12.59,4.5-28.19,7.81" style="fill:none;stroke:#999;stroke-width:3" />
<path d="M1337.52,71.97c2.5,0.83,5.58,0.31,8.11-0.07c10.12-1.52,19.25-2.52,33.74-4.17c3.24-0.37,6.89-0.47,10.31-0.15" style="fill:none;stroke:black;stroke-width:3" />
<circle cx="1337.52" cy="71.97" r="5" stroke-width="0" fill="#FF2A00" opacity="0.7" />
<path d="M1436.6399999999999,20.04c1.12,0.47,3.16,0.42,4.36,0.34c7.45-0.55,14.57-1.8,21.38-2.42c1.23-0.11,2.29-0.2,3.48,0.1" style="fill:none;stroke:#999;stroke-width:3" />
<path d="M1436.32,28.26c0.77,0.77,1.2,2.31,1.35,3.13c0.47,2.6,1.36,6.61,1.88,10.82c0.16,1.27,0.32,2.51,0.49,3.63" style="fill:none;stroke:#999;stroke-width:3" />
<path d="M1438.25,29.13c5.9-0.53,18.09-2.57,24-3.09c2.7-0.24,4.7,0.62,4.18,3.76c-0.46,2.81-1.61,6.42-2.63,10.14c-0.29,1.06-0.59,2.12-0.88,3.13" style="fill:none;stroke:#999;stroke-width:3" />
<path d="M1439.82,36.53c6.68-0.91,17.18-2.41,24.45-2.81" style="fill:none;stroke:#999;stroke-width:3" />
<path d="M1440.82,43.92c5.83-0.62,13.8-1.8,21.35-2.21" style="fill:none;stroke:#999;stroke-width:3" />
<path d="M1431.33,52.53c1.5,0.89,4.3,0.6,5.93,0.42c7.64-0.82,20.35-2.5,27.24-3.33c1.45-0.17,3-0.49,4.42,0.02" style="fill:none;stroke:#999;stroke-width:3" />
<path d="M1450.6399999999999,11.38c0.8,0.8,1.11,1.87,1.11,2.99c0,0.49,0.08,28.17,0.11,39.26c0.01,2.65,0.01,4.35,0.01,4.51" style="fill:none;stroke:#999;stroke-width:3" />
<path d="M1477.62,14.06c0.47,0.47,0.77,1.37,0.72,1.99c-0.46,5.95-1.96,11.45-6.57,15.9" style="fill:none;stroke:#999;stroke-width:3" />
<path d="M1479.08,15.5c3.79-0.5,8.17-1.25,11.46-1.68c1.82-0.24,2.66,1.07,2.48,2.18c-0.35,2.18-1.03,5.38-1.03,7.56c0,4.31,0.39,4.71,6.97,4.71c6.9,0,7.22-1.28,7.22-6.05" style="fill:none;stroke:#999;stroke-width:3" />
<path d="M1475.92,35.44c1.02,0.19,1.15,0.47,3.2,0.19s12.65-1.82,14.06-2.08c2.32-0.42,3.41,1.36,2.17,2.83c-7.47,8.88-16.33,14.84-28.6,19.54" style="fill:none;stroke:#999;stroke-width:3" />
<path d="M1473.17,41.11c4.5,0,15.63,8.27,26.25,12.95c2.29,1.01,4.65,1.99,7.08,2.61" style="fill:none;stroke:#999;stroke-width:3" />
<path d="M1483.51,54.75c-0.01,1-0.89,1.73-2.17,2.25c-4.34,1.75-12.59,4.5-28.19,7.81" style="fill:none;stroke:#999;stroke-width:3" />
<path d="M1446.52,71.97c2.5,0.83,5.58,0.31,8.11-0.07c10.12-1.52,19.25-2.52,33.74-4.17c3.24-0.37,6.89-0.47,10.31-0.15" style="fill:none;stroke:#999;stroke-width:3" />
<path d="M1438.01,82.58c1.99,0.73,4.81,0.32,6.86,0.08c10.18-1.21,38.01-4.54,53.75-5.27c2.64-0.12,5.7-0.18,8.3,0.39" style="fill:none;stroke:black;stroke-width:3" />
<circle cx="1438.01" cy="82.58" r="5" stroke-width="0" fill="#FF2A00" opacity="0.7" />
<path d="M1545.6399999999999,20.04c1.12,0.47,3.16,0.42,4.36,0.34c7.45-0.55,14.57-1.8,21.38-2.42c1.23-0.11,2.29-0.2,3.48,0.1" style="fill:none;stroke:#999;stroke-width:3" />
<path d="M1545.32,28.26c0.77,0.77,1.2,2.31,1.35,3.13c0.47,2.6,1.36,6.61,1.88,10.82c0.16,1.27,0.32,2.51,0.49,3.63" style="fill:none;stroke:#999;stroke-width:3" />
<path d="M1547.25,29.13c5.9-0.53,18.09-2.57,24-3.09c2.7-0.24,4.7,0.62,4.18,3.76c-0.46,2.81-1.61,6.42-2.63,10.14c-0.29,1.06-0.59,2.12-0.88,3.13" style="fill:none;stroke:#999;stroke-width:3" />
<path d="M1548.82,36.53c6.68-0.91,17.18-2.41,24.45-2.81" style="fill:none;stroke:#999;stroke-width:3" />
<path d="M1549.82,43.92c5.83-0.62,13.8-1.8,21.35-2.21" style="fill:none;stroke:#999;stroke-width:3" />
<path d="M1540.33,52.53c1.5,0.89,4.3,0.6,5.93,0.42c7.64-0.82,20.35-2.5,27.24-3.33c1.45-0.17,3-0.49,4.42,0.02" style="fill:none;stroke:#999;stroke-width:3" />
<path d="M1559.6399999999999,11.38c0.8,0.8,1.11,1.87,1.11,2.99c0,0.49,0.08,28.17,0.11,39.26c0.01,2.65,0.01,4.35,0.01,4.51" style="fill:none;stroke:#999;stroke-width:3" />
<path d="M1586.62,14.06c0.47,0.47,0.77,1.37,0.72,1.99c-0.46,5.95-1.96,11.45-6.57,15.9" style="fill:none;stroke:#999;stroke-width:3" />
<path d="M1588.08,15.5c3.79-0.5,8.17-1.25,11.46-1.68c1.82-0.24,2.66,1.07,2.48,2.18c-0.35,2.18-1.03,5.38-1.03,7.56c0,4.31,0.39,4.71,6.97,4.71c6.9,0,7.22-1.28,7.22-6.05" style="fill:none;stroke:#999;stroke-width:3" />
<path d="M1584.92,35.44c1.02,0.19,1.15,0.47,3.2,0.19s12.65-1.82,14.06-2.08c2.32-0.42,3.41,1.36,2.17,2.83c-7.47,8.88-16.33,14.84-28.6,19.54" style="fill:none;stroke:#999;stroke-width:3" />
<path d="M1582.17,41.11c4.5,0,15.63,8.27,26.25,12.95c2.29,1.01,4.65,1.99,7.08,2.61" style="fill:none;stroke:#999;stroke-width:3" />
<path d="M1592.51,54.75c-0.01,1-0.89,1.73-2.17,2.25c-4.34,1.75-12.59,4.5-28.19,7.81" style="fill:none;stroke:#999;stroke-width:3" />
<path d="M1555.52,71.97c2.5,0.83,5.58,0.31,8.11-0.07c10.12-1.52,19.25-2.52,33.74-4.17c3.24-0.37,6.89-0.47,10.31-0.15" style="fill:none;stroke:#999;stroke-width:3" />
<path d="M1547.01,82.58c1.99,0.73,4.81,0.32,6.86,0.08c10.18-1.21,38.01-4.54,53.75-5.27c2.64-0.12,5.7-0.18,8.3,0.39" style="fill:none;stroke:#999;stroke-width:3" />
<path d="M1579.46,62.81C1586.0,68.75,1586.5,84,1583.53,94.42c-1.59,5.56-5.78,3.58-8.29,0.04" style="fill:none;stroke:black;stroke-width:3" />
<circle cx="1579.46" cy="62.81" r="5" stroke-width="0" fill="#FF2A00" opacity="0.7" />
</svg>